# xmcd
#
# Track frame offsets: 
#        150
#        10757
#        26862
#        38852
#        53065
#        64945
#        78285
#        91320
#        103577
#        116840
#        131340
#        148282
#
# Disc length: 2149 seconds
#
# Revision: 1
# Processed by: cddbd v1.5.2PL0 Copyright (c) Steve Scherf et al.
# Submitted via: ExactAudioCopy v0.99pb4
#
DISCID=a108630c
DTITLE=Ben E. King - Sings For Soulful Lovers
DYEAR=1962
DGENRE=Soul
TTITLE0=My Heart Cries For You
TTITLE1=He Will Break Your Heart
TTITLE2=Dream Lover
TTITLE3=Will You Love Me Tomorrow
TTITLE4=My Foolish Heart
TTITLE5=Fever
TTITLE6=Moon River
TTITLE7=What A Difference A Day Made
TTITLE8=Because Of You
TTITLE9=At Last
TTITLE10=On The Street Where You Live
TTITLE11=It's All In The Game
EXTD=
EXTT0=
EXTT1=
EXTT2=
EXTT3=
EXTT4=
EXTT5=
EXTT6=
EXTT7=
EXTT8=
EXTT9=
EXTT10=
EXTT11=
PLAYORDER=
